<svg id="Layer_1" data-name="Layer 1" xmlns="http://www.w3.org/2000/svg" viewBox="0 0 396.81 208.49"><defs><style>.cls-1{fill:#fff;}</style></defs><title>Django</title><path class="cls-1" d="M310.06,89.92v3.2c0,15.14.12,30.28,0,45.42-.15,19.91-12,32.53-31.76,34.46A69.52,69.52,0,0,1,252,170.49c-2.16-.63-3-1.67-2.94-3.94.15-5,0-10,0-15.6,1.69.65,2.82,1,3.91,1.51,7.54,3.34,15.48,3.91,23.53,3.2,9.37-.82,15.11-8.52,13.9-17.69-5.71.39-11.39,1.3-17,1.06-13.79-.59-24-10.69-25.49-24.48C245.61,92.71,255.6,78.72,277,73.84c11.69-2.66,34.24-2,44.47,1.37-2,4.19-3.72,8.47-6.05,12.42C314.71,88.8,312.36,89,310.06,89.92Zm-19.35-1.4c-13.33-1-23.31,5.65-22.28,19.41.88,11.67,7.85,17,19.24,14.61,2.26-.48,3.39-1.34,3.22-3.94-.27-4.35-.16-8.73-.17-13.1C290.7,99.81,290.71,94.12,290.71,88.52Z"/><path class="cls-1" d="M52.08,72.58c0-9.26.24-18-.11-26.72-.16-4,1.28-4.89,4.9-4.7,5.1.26,10.22.07,15.89.07v4.35c0,29.15-.07,58.3.09,87.45,0,3.29-1,4.47-4.08,4.6-10.46.46-21,2.17-31.35,1.29-23.82-2-32.21-18-29.38-38.81C11.11,77.63,30,70.6,47,72,48.51,72.12,50,72.33,52.08,72.58Zm0,49.81c0-10.5,0-21.11-.06-31.72a2.56,2.56,0,0,0-1.39-1.83C44.32,86.22,35,89.24,31.23,95c-4.09,6.32-3.83,17,.56,22.74C35.67,122.79,44,124.79,52.06,122.39Z"/><path class="cls-1" d="M387.47,109.07c-.31,10-4.36,21.64-17.29,27.87a37.48,37.48,0,0,1-33.67-.09c-9.25-4.44-14.22-12.3-15.78-22.32a44.85,44.85,0,0,1,1.4-21.48c4.14-12.39,14.57-20.64,27.62-21.22a56.86,56.86,0,0,1,14.52,1C379,76,387.54,88.38,387.47,109.07Zm-20.17-2.81c-1-4-1.58-8-3-11.58C362.54,90.26,358.9,88,354,87.94S345.43,90,343.4,94.31a26.82,26.82,0,0,0,0,23.5c2,4.3,5.72,6.43,10.58,6.38s8.51-2.34,10.31-6.72C365.7,114,366.29,110.13,367.3,106.26Z"/><path class="cls-1" d="M179.74,138.89V76.33C194.41,73,209,69.74,224.11,73.2c10.42,2.39,16,9.45,16.08,20.09.1,14,.11,28,.15,42,0,1-.09,2-.16,3.27h-20v-3.93c0-11.64,0-23.28-.15-34.92-.09-9.35-3.41-12.27-12.78-11.45-6.87.61-6.87.61-6.89,7.4,0,13.14-.16,26.28-.05,39.42,0,2.93-.77,4-3.8,3.84C191.05,138.73,185.57,138.89,179.74,138.89Z"/><path class="cls-1" d="M118.78,93.31c0-3.7.36-6.88-.08-9.93-.68-4.66,1.44-6.53,5.59-7.87,9.8-3.15,19.66-4.58,29.91-3.07,8.6,1.27,14.18,6.06,14.43,14.63.49,16.73.14,33.49.14,50.75-5.82.56-11.61,1.44-17.42,1.6a165,165,0,0,1-21.68-.48c-7.87-.83-13.18-5.82-14.52-12.19-2.11-10,.47-17.62,7.63-22.24,6.59-4.26,14.15-5.42,21.7-6.53l5.45-.79c1.36-7.81-.35-10.36-7.86-9.63-6.37.62-12.62,2.65-18.9,4.12A42.38,42.38,0,0,0,118.78,93.31Zm32.54,16.58c-5.49,1.45-10.24,2.4-14.76,4-3,1-4.27,3.79-3.63,7a5.52,5.52,0,0,0,5.63,4.59,77.91,77.91,0,0,0,10.79-.53,2.85,2.85,0,0,0,1.88-2C151.42,119,151.32,115,151.32,109.89Z"/><path class="cls-1" d="M85.54,73.33h19.95a5.21,5.21,0,0,1,.44,1.42c-.26,21-.13,42-1,63-.52,12.8-6.71,22.87-18.56,28.79A4.72,4.72,0,0,1,83,167c-5.69-2.5-11.27-5.24-17.35-8.12a20.9,20.9,0,0,1,2.14-1.45c12-5.65,17-15.65,17.2-28.41.28-17,.4-34,.58-51C85.55,76.57,85.54,75.1,85.54,73.33Z"/><path class="cls-1" d="M105.66,41.29V62c-6.13,0-12.3.06-18.46-.11-.57,0-1.55-1.51-1.57-2.33-.14-5.24-.16-10.49,0-15.72,0-.86,1.22-2.37,1.92-2.39C93.52,41.21,99.47,41.29,105.66,41.29Z"/></svg>