<svg id="Layer_1" data-name="Layer 1" xmlns="http://www.w3.org/2000/svg" viewBox="0 0 241.82 285"><defs><style>.cls-1{fill:#fff;}.cls-2{fill:none;stroke:#fff;stroke-miterlimit:10;stroke-width:8px;}</style></defs><title>Fantastico</title><path class="cls-1" d="M180,109.07c0,10.62-7.46,19.23-16.66,19.23s-16.66-8.61-16.66-19.23,7.46-19.22,16.66-19.22S180,98.45,180,109.07Z"/><path class="cls-1" d="M93.94,109.07c0,10.62-7.46,19.23-16.66,19.23s-16.66-8.61-16.66-19.23,7.46-19.22,16.66-19.22S93.94,98.45,93.94,109.07Z"/><path class="cls-1" d="M68,170.25c0,19.86,23.43,33.93,52.33,33.93s52.34-14.07,52.34-33.93a124.52,124.52,0,0,1-52.34,13.31C89.91,184.24,68,170.25,68,170.25Z"/><circle class="cls-2" cx="120.29" cy="142.38" r="115.53" transform="translate(-45.58 57.35) rotate(-22.66)"/></svg>