<svg id="Layer_1" data-name="Layer 1" xmlns="http://www.w3.org/2000/svg" viewBox="0 0 241.82 285"><defs><style>.cls-1{fill:#fff;}</style></defs><title>Java</title><path class="cls-1" d="M119.89,152.32c-1.45-1.43-2.79-2.67-4-4-5.68-6-11.3-12-16.38-18.56A87.89,87.89,0,0,1,90,115.69a24.1,24.1,0,0,1-2.29-5.79,15.49,15.49,0,0,1,.68-8.73,33.67,33.67,0,0,1,5.43-9.33,86.72,86.72,0,0,1,9.39-10c7.16-6.62,14.72-12.78,22.26-19a98.38,98.38,0,0,0,10.31-9.16,46.19,46.19,0,0,0,12.06-24.27,41.09,41.09,0,0,0-.21-13.86c-.07-.4-.39-1,.07-1.19s.66.43.91.75a13.16,13.16,0,0,1,2.19,4.74,51.77,51.77,0,0,1,1.77,15,41,41,0,0,1-8,22.81A52.61,52.61,0,0,1,138,65.05c-6.39,6.1-12.82,12.16-19.09,18.4a125.89,125.89,0,0,0-11.21,12.44,47,47,0,0,0-5.41,8.87,17.71,17.71,0,0,0-1.12,12.07,66,66,0,0,0,5.8,14.63,171.27,171.27,0,0,0,9.78,16.1c.79,1.18,1.67,2.3,2.5,3.46A2.66,2.66,0,0,1,119.89,152.32Z"/><path class="cls-1" d="M200.67,233.08a5.69,5.69,0,0,1,3.08,3.23,2.52,2.52,0,0,1-.47,2.57,12.62,12.62,0,0,1-2.74,2.67,39.87,39.87,0,0,1-8.34,4.54,100.53,100.53,0,0,1-17.48,5.18c-5.13,1.12-10.32,1.94-15.53,2.59-4.13.5-8.27.88-12.41,1.21-5.53.44-11.07.75-16.61,1q-9.94.42-19.91.57c-7.22.11-14.44,0-21.66-.11q-10.12-.19-20.23-.9c-6-.43-12-.89-18-1.73a94.82,94.82,0,0,1-16.58-3.44,22.91,22.91,0,0,1-3.72-1.57c-.29-.15-.58-.31-.86-.48-2.72-1.73-3.16-3.77-1.39-6.49a11.11,11.11,0,0,1,3.14-3,32,32,0,0,1,8.49-4,91.62,91.62,0,0,1,19.66-4.07,48.49,48.49,0,0,1,5.9-.15,1.92,1.92,0,0,1,1,.29c-.58.11-1.16.24-1.75.34A101.83,101.83,0,0,0,52.41,234a35.58,35.58,0,0,0-6.08,2.44,7.72,7.72,0,0,0-2.92,2.43,2.16,2.16,0,0,0,.54,3.41,11.69,11.69,0,0,0,3.72,1.81,82.78,82.78,0,0,0,12.06,2.61c4.54.71,9.11,1.25,13.68,1.69,4,.39,8,.64,12,1,9.62.81,19.25.51,28.88.36,8.17-.11,16.34-.46,24.5-.86,5.61-.28,11.22-.62,16.81-1.09,7.78-.65,15.55-1.36,23.26-2.62a101.26,101.26,0,0,0,13.87-3.06,25.79,25.79,0,0,0,5.72-2.44,9.5,9.5,0,0,0,1.83-1.39,3.29,3.29,0,0,0,.89-3.51,4.36,4.36,0,0,1-.48-1.66Z"/><path class="cls-1" d="M130.83,162.07a2.42,2.42,0,0,1,.59-1,63.54,63.54,0,0,0,5-7.86,12.43,12.43,0,0,0,0-12.26,45.54,45.54,0,0,0-3-4.94c-2-2.9-4.12-5.77-6.08-8.72A31.69,31.69,0,0,1,122,113.48a25,25,0,0,1,2.34-14.08A38.92,38.92,0,0,1,134.6,86.69a84.87,84.87,0,0,1,18-11.53,147.76,147.76,0,0,1,23.23-9q.48-.14,1-.24a1,1,0,0,1,.26.06c0,.44-.43.52-.7.69-3.4,2.2-6.84,4.34-10.22,6.58a155.5,155.5,0,0,0-16.48,12.31A55.35,55.35,0,0,0,139.4,96.74a20.67,20.67,0,0,0-2.86,6.13,12.23,12.23,0,0,0,.35,7.33,35.72,35.72,0,0,0,3.77,7.16c1.94,3,4,6,5.72,9.09a38.56,38.56,0,0,1,3.1,7.35A15.28,15.28,0,0,1,148,146.36a34.8,34.8,0,0,1-6.42,7.87,65.62,65.62,0,0,1-9.89,7.6,6.19,6.19,0,0,1-.57.3S130.94,162.1,130.83,162.07Z"/><path class="cls-1" d="M85.77,212.06c0,.51-.3.79-.49,1.14A2.73,2.73,0,0,0,86,217a7.36,7.36,0,0,0,2.21,1.18,23.9,23.9,0,0,0,6.53,1.26c7.18.38,14.36.62,21.55.42a203.72,203.72,0,0,0,20.94-1.52,60.83,60.83,0,0,0,8.37-1.58,3.58,3.58,0,0,1,3,.44,80.62,80.62,0,0,0,10.08,5.5c.76.34,1.53.66,2.39,1a13.47,13.47,0,0,1-2.83,1.13c-6,1.84-12,3.55-18.17,4.79A115.33,115.33,0,0,1,124,231.81a142,142,0,0,1-19.57-.43,97.45,97.45,0,0,1-15-2.25,35.56,35.56,0,0,1-10.11-3.77A10.12,10.12,0,0,1,76.42,223a4.65,4.65,0,0,1,0-6.14,8,8,0,0,1,1.74-1.65,20.12,20.12,0,0,1,6.51-3A2.11,2.11,0,0,1,85.77,212.06Z"/><path class="cls-1" d="M80.35,184c-.5.59-.88,1-1.25,1.48a9.43,9.43,0,0,0-.64.88c-1.16,1.91-.84,3.46,1,4.73a12.72,12.72,0,0,0,4.43,1.81,55.83,55.83,0,0,0,9.63,1.27,210.11,210.11,0,0,0,21.88,0c6.89-.32,13.76-.8,20.61-1.54,5.77-.63,11.51-1.44,17.21-2.47a3.21,3.21,0,0,1,2.84.75,27.73,27.73,0,0,0,6,4.05,21.9,21.9,0,0,0,2.83,1.08,5,5,0,0,1-1.82.8,166,166,0,0,1-17.27,4.38q-6.27,1.25-12.64,1.94a139.11,139.11,0,0,1-18.14.72c-4.7-.13-9.41-.24-14.1-.51a136.23,136.23,0,0,1-22.22-2.79,33.55,33.55,0,0,1-7.24-2.44,9,9,0,0,1-2.29-1.49,4.15,4.15,0,0,1-1.19-4.5,8.64,8.64,0,0,1,3.28-4.53A20.55,20.55,0,0,1,80.35,184Z"/><path class="cls-1" d="M89.24,154.36c-.21.37-.49.34-.72.41-4.27,1.22-8.56,2.39-12.73,3.95A50.06,50.06,0,0,0,70,161.26a11.85,11.85,0,0,0-3.2,2.27c-1.44,1.54-1.23,2.69.65,3.59a18.88,18.88,0,0,0,5.37,1.43,163.89,163.89,0,0,0,17,1.39c7.48.28,15,.29,22.43.13,4.31-.08,8.6-.41,12.89-.74,3.24-.25,6.48-.47,9.71-.76q6.1-.54,12.19-1.18c3.41-.37,6.81-.8,10.21-1.23,4.34-.54,8.67-1.18,13-1.86,1.26-.2,2.52-.4,3.78-.58.19,0,.42-.17.63.12-.17.33-.54.44-.83.62-2.73,1.69-5.47,3.35-8.19,5.07a6.64,6.64,0,0,1-2.64,1c-5.12.72-10.24,1.51-15.37,2.17-4.67.61-9.35,1.08-14,1.62-5.36.63-10.74,1.1-16.12,1.44-6.63.41-13.26.83-19.9.65-6.82-.19-13.63-.45-20.44-1-5.27-.39-10.53-.92-15.77-1.62a56.45,56.45,0,0,1-10-2.19,9.84,9.84,0,0,1-3-1.45c-1.33-1-1.42-2-.31-3.24a10,10,0,0,1,2.3-1.84,55.52,55.52,0,0,1,10.44-4.75,112.83,112.83,0,0,1,19.55-5.08c2.23-.36,4.48-.62,6.72-.88A21.36,21.36,0,0,1,89.24,154.36Z"/><path class="cls-1" d="M62.62,262.08l8.05.71c3.81.33,7.62.71,11.44,1,8.33.63,16.68,1,25,1.27,8.09.24,16.19.29,24.29.09,5.55-.15,11.09-.35,16.62-.74a257.5,257.5,0,0,0,26.28-3,134.28,134.28,0,0,0,23.17-6,64.57,64.57,0,0,0,16.67-8.83c.29-.22.59-.43.89-.63a1.09,1.09,0,0,1,.26,0,6.26,6.26,0,0,1-1,2.62,19.62,19.62,0,0,1-4.07,4.41A42.94,42.94,0,0,1,200,259a86.29,86.29,0,0,1-19.87,5.88q-8.51,1.59-17.09,2.6c-5,.6-10,1.05-15,1.43-7.17.55-14.35.9-21.54,1q-12.19.18-24.39-.68A192.62,192.62,0,0,1,73.6,265.3c-3.38-.74-6.73-1.63-10-2.62A1.33,1.33,0,0,1,62.62,262.08Z"/><path class="cls-1" d="M182.38,155.3a2.44,2.44,0,0,1,.87-.79,15.37,15.37,0,0,1,6-2.29,23.11,23.11,0,0,1,16.32,2.3,20.26,20.26,0,0,1,6.71,5.7c3.76,5.23,4.21,10.86,1.69,16.71a28.77,28.77,0,0,1-7,9.43A58.59,58.59,0,0,1,191,196.66a94.17,94.17,0,0,1-13.56,4.91,4.75,4.75,0,0,1-.63.14,1.28,1.28,0,0,1-.39-.05,3.57,3.57,0,0,1,1.15-.86c3.35-2.07,6.67-4.2,9.81-6.59A66.48,66.48,0,0,0,200.16,182a23,23,0,0,0,4.77-10c.86-4.94-.23-9.39-3.83-13a13.83,13.83,0,0,0-7.38-3.58,29.11,29.11,0,0,0-10.65-.07A1,1,0,0,1,182.38,155.3Z"/><polygon class="cls-1" points="119.99 152.45 119.98 152.39 120.02 152.4 119.99 152.45"/><path class="cls-1" d="M200.68,233.06h-.08c0-.07,0-.06.07,0Z"/></svg>