<svg id="Layer_1" data-name="Layer 1" xmlns="http://www.w3.org/2000/svg" viewBox="0 0 241.82 285"><defs><style>.cls-1{fill:#fff;}</style></defs><title>Joomla</title><path class="cls-1" d="M230.29,62.22a28.9,28.9,0,0,0-57.51-4.09l-.3-.15c-23.63-10.66-43.54,8.22-43.54,8.22L76.27,119.12l20.81,20,42.39-41.64c19.8-19.8,30.57-6.4,30.57-6.4,14.9,12.59.52,27.49.52,27.49l21.32,20.55c17.41-18.81,18.42-35.22,13.13-48.27a28.91,28.91,0,0,0,25.28-28.67"/><path class="cls-1" d="M205.28,195.14l.15-.3c10.66-23.63-8.22-43.54-8.22-43.54L144.29,98.63l-20,20.81,41.64,42.39c19.8,19.8,6.4,30.57,6.4,30.57-12.59,14.9-27.49.52-27.49.52l-20.55,21.32c18.8,17.41,35.22,18.42,48.27,13.13a28.9,28.9,0,1,0,32.76-32.23"/><path class="cls-1" d="M144.74,145.84l-42.39,41.64c-19.8,19.8-30.57,6.4-30.57,6.4-14.9-12.59-.52-27.49-.52-27.49L49.94,145.84c-17.41,18.8-18.42,35.22-13.13,48.27A28.9,28.9,0,1,0,69,226.87l.3.15c23.63,10.66,43.54-8.22,43.54-8.22l52.67-52.92-20.81-20"/><path class="cls-1" d="M75.93,123.17c-19.8-19.8-6.4-30.57-6.4-30.57C82.12,77.7,97,92.08,97,92.08l20.55-21.32C98.76,53.35,82.35,52.34,69.3,57.63A28.9,28.9,0,1,0,36.54,89.86c-.1.19-.15.3-.15.3-10.66,23.63,8.22,43.54,8.22,43.54l52.92,52.67,20-20.81L75.93,123.17"/></svg>