<svg id="Layer_1" data-name="Layer 1" xmlns="http://www.w3.org/2000/svg" viewBox="0 0 241.82 285"><defs><style>.cls-1{fill:#fff;}</style></defs><title>Linux</title><path class="cls-1" d="M214.94,195.61c6.31,2.42,8.43,7.79,9.61,13.75,1.07,5.48,2.93,10.44,6.88,14.69a25.76,25.76,0,0,1,4.51,7.73c1.7,4.13.6,7.95-2.77,10.82a42.52,42.52,0,0,1-6.93,4.6c-3.15,1.77-6.46,3.26-9.68,4.88a49.4,49.4,0,0,0-15.3,11.73C195.33,270.62,188.1,275.45,179,277a21.33,21.33,0,0,1-23.86-13.54,2.47,2.47,0,0,0-2.7-1.9,84.54,84.54,0,0,1-12.81-1c-10.2-1.89-20.23-1-30.27,1.06-2.72.56-5.5.79-8.24,1.28A2.71,2.71,0,0,0,99.37,264c-4,6.89-10.2,9.74-17.8,10.19a41.38,41.38,0,0,1-22-4.8c-7.73-4-16-5.64-24.47-6.56-3.37-.36-6.75-.78-10.06-1.45-9.41-1.88-12.92-7.37-10.87-16.74a11.83,11.83,0,0,1,.56-2.18c2.28-5.07,1.79-10.27.84-15.52A35.58,35.58,0,0,1,15,222c-.28-6.08,2.24-10.62,7.64-13.51a10.36,10.36,0,0,1,2.46-1.13c6.9-1.54,11.49-5.89,15.49-11.53a13.41,13.41,0,0,0,2.93-9.25c-.6-12.34,3.28-23.73,8.48-34.75C58.3,138.46,66.63,126.4,76,115c8-9.75,12.68-20.88,13.28-33.42.4-7.59-.24-15.18-.54-22.77a89.33,89.33,0,0,1,1.49-22c3.61-16.82,14.52-27,31.71-28.7a73,73,0,0,1,18,.21c13.29,2,21.74,10.24,26.32,22.64,3.35,9.08,4.33,18.58,4.58,28.18.12,4.59.27,9.21,0,13.79-.73,11.94,3,22.41,10.09,31.8,5.39,7.17,11.14,14,16.45,21.26,8.54,11.53,15.4,23.92,18.71,38a56.65,56.65,0,0,1-.77,30.37A6.75,6.75,0,0,0,214.94,195.61ZM150.06,89.41a55.48,55.48,0,0,1-4.31,3.8A39.64,39.64,0,0,1,140.87,96c-3.19,1.66-6.55,3.05-9.59,5-7.6,4.74-17.7,6.74-26.75-2.42-1.9-1.9-4.36-3.3-6.45-4.83-1.24,5.69-2.17,11.1-3.61,16.37C91,122.42,85.62,134,80.13,145.6c-4.37,9.22-8,18.68-9.49,28.83-.52,3.35-.82,6.74-1.25,10.44a28.06,28.06,0,0,1-5.33-13.65c-1-9.15,1.45-17.61,5.22-25.78,1.83-4,3.91-7.81,5.84-11.73a21.08,21.08,0,0,0,.95-2.59,7.69,7.69,0,0,0-2.22,2.59c-5.76,9.66-11,19.55-13.15,30.76-2.63,13.78,1.9,24.4,13.64,32l2.66,1.7c6.33,4.15,12.4,8.66,16.9,14.82a31.25,31.25,0,0,1,4.61,9.17c1.39,4.59-1.28,8.13-6,9-.79.15-1.6.24-2.68.4,2,2.61,3.71,5,5.53,7.39a15.61,15.61,0,0,0,3.06,3.53,42.1,42.1,0,0,0,17.76,6.85c15,2.13,28.27-2.3,40.54-10.57a2.91,2.91,0,0,0,1.22-1.52c1.2-5.34,2.72-10.66,3.37-16.08.87-7.31.76-14.75,3-21.83,1.62-5.06,4.39-9.2,9.43-11.53a2.94,2.94,0,0,0,1.3-1.85c1.54-6.52,5-8.88,11.65-7.76a40.9,40.9,0,0,1,14.92,6.11c3.67,2.3,6.58,5.13,5.53,10,1.58.58,2.27.08,2.46-1.38a8.37,8.37,0,0,0-2.12-7.34,44.29,44.29,0,0,0-6.65-5.41,83.46,83.46,0,0,0-7.65-4.19c1.31-12.29.6-18.11-3.32-27.42-4.07-9.64-13.09-21.83-16.91-22.07,1.11,1.35,2,2.43,2.85,3.46,9.26,10.33,14.8,22.1,13.79,36.29a61.59,61.59,0,0,1-1.6,8l-5.88-.79c-.16-.58-.31-1.08-.41-1.59a112.39,112.39,0,0,0-11-30.24,273.42,273.42,0,0,1-17.22-41C152.32,97,151.23,93.23,150.06,89.41ZM79.18,270.8c1.35-.1,2.71-.13,4-.28,8.08-.9,13.36-5.64,14.7-13,.87-4.86-.7-9.15-3.33-13-3.37-4.93-7.09-9.56-10.58-14.36-2.43-3.34-5-6.64-7.07-10.18-3.58-6.1-6.64-12.53-10.33-18.52a27.83,27.83,0,0,0-7.2-7.59c-4.91-3.63-10.27-2.68-14.31,1.84-1.94,2.18-3.67,4.57-5.41,6.94A17.65,17.65,0,0,1,30.89,209a66.13,66.13,0,0,0-6.32,2.4,9.78,9.78,0,0,0-6.05,9.5,39.44,39.44,0,0,0,.64,6.5c.95,5.19,1.25,10.28-.85,15.31a20,20,0,0,0-1,4.45c-.95,5.69,1.07,9,6.75,10.35a80.37,80.37,0,0,0,10.9,1.77c9,.94,17.8,2.61,26,6.94A40.12,40.12,0,0,0,79.18,270.8Zm95.24-79.19c-2.59.88-5.19,3.34-6.26,7.45a83,83,0,0,0-2.77,15.5,97.7,97.7,0,0,1-4.4,24.8,88.12,88.12,0,0,0-2.68,10.49c-.9,4.53-1.52,9.11.54,13.53,3.8,8,11.39,11.82,20.12,10.1,8.38-1.63,14.88-6.36,20.31-12.66a46.66,46.66,0,0,1,13.29-10.66c2.65-1.43,5.4-2.67,8.05-4.1a92.66,92.66,0,0,0,9.21-5.21c3.54-2.44,4.26-5.23,2.33-9a40.23,40.23,0,0,0-5.12-7.65,22.65,22.65,0,0,1-4.85-9.55c-.78-3.22-1.54-6.45-2.62-9.57-1.51-4.36-4.81-6.59-9.38-6.93a12.75,12.75,0,0,0-3.38,0,6.76,6.76,0,0,0-3.12,1.31,32,32,0,0,1-11.81,6.92c-6.71,2-12-.22-14.89-6.6a70.5,70.5,0,0,1-2.6-8.13Zm-56.11-88.72a21,21,0,0,0,10.93-3.11c3.6-2,7.4-3.67,10.95-5.7a32.59,32.59,0,0,0,7.42-5.35c4.29-4.56,3.22-9.61-2.41-12.28-6.37-3-12.8-6-19.31-8.67a17.25,17.25,0,0,0-18.45,2.64q-5.62,4.5-11.25,9c-2.52,2.05-3.3,4.68-1.6,7.4a27.23,27.23,0,0,0,5.29,5.69c2.66,2.32,5.63,4.27,8.33,6.52A15,15,0,0,0,118.31,102.89Zm21.11-31c2,.79,3.79,1.61,5.69,2.23a1.91,1.91,0,0,0,1.57-.72c5.35-6.92,4.18-19.64-2.29-25.53-4.74-4.33-10.93-4.4-15.65,0-4.56,4.29-5.9,9.8-5.46,15.84a2,2,0,0,0,1.1,1.39c1.81.69,3.69,1.21,5.22,1.7a75.36,75.36,0,0,1,1.94-8,5,5,0,0,1,4.93-3.67c2.52,0,3.9,1.89,4.74,4,1.68,4.51,1.56,8.84-1.79,12.82Zm-37,.41a11.54,11.54,0,0,1-2.48-11.61A5.82,5.82,0,0,1,103,57.33c1.9-.66,3.23,1.12,3.8,2.75A62.81,62.81,0,0,1,108.59,67c1.24-.52,2.7-1.06,4.09-1.74a1.63,1.63,0,0,0,.83-1.16c.12-5.84-1-11.28-5.79-15.18-3-2.41-6.38-2.14-9.21.46a13.29,13.29,0,0,0-3.93,7.69c-1.16,6.44-.21,12.46,4.39,17.76Z"/><path class="cls-1" d="M143.84,81a9.09,9.09,0,0,1-1.23,1.9,47.75,47.75,0,0,1-22.24,11.83c-5.52,1.24-10.63-.33-15.18-3.43a60,60,0,0,1-6.94-5.69,8.83,8.83,0,0,1-1.39-2.72l.69-.46a17.14,17.14,0,0,1,1.31,1.25c4.28,5.23,9.39,9.23,16.3,9.92a20.52,20.52,0,0,0,8-1,43.89,43.89,0,0,0,18.69-11.32,5.32,5.32,0,0,1,1.57-.81Z"/><path class="cls-1" d="M110.59,72.52c1.32-1.9,2.73-2.18,4.5-1C112.29,73.35,112.08,73.4,110.59,72.52Z"/><path class="cls-1" d="M121.75,71.49c1.89-1.23,3.33-.58,5,.94C124.42,74,123.29,71.75,121.75,71.49Z"/></svg>