<svg id="Layer_1" data-name="Layer 1" xmlns="http://www.w3.org/2000/svg" viewBox="0 0 241.82 285"><defs><style>.cls-1{fill:#fff;}</style></defs><title>MongoDB</title><path class="cls-1" d="M124.41,48.8a7.65,7.65,0,0,0-.15.94c-.15,5.26-.27,10.52-.42,15.77-.23,7.74-.45,15.48-.71,23.22-.21,6.3-.47,12.59-.68,18.88-.25,7.51-.46,15-.71,22.52-.2,6.07-.47,12.12-.67,18.19-.26,7.68-.46,15.36-.71,23-.22,6.53-.54,13-.68,19.57-.37,17.17-.66,34.34-1,51.5,0,.28,0,.57-.1,1.07a11.5,11.5,0,0,1-1.49-.38c-21.42-8.29-37.84-22.26-48.35-42.82A88.86,88.86,0,0,1,59.56,170,154.15,154.15,0,0,1,58.24,152,162.85,162.85,0,0,1,65,106.78c7.12-24.6,18.46-47.21,32.4-68.58A295.63,295.63,0,0,1,121,6.69c.79-.91,1.62-1.79,2.61-2.89,1.1,1.23,2.11,2.32,3.07,3.44,21.64,25.31,39.21,53.1,51.15,84.3A182.45,182.45,0,0,1,188,129.61a152.32,152.32,0,0,1,1.45,15.67,132.12,132.12,0,0,1,0,15.92C187,194,172.79,219.84,144.07,236.89c-3.72,2.21-7.73,3.92-11.62,5.84-.66.32-1.38.53-2.41.93v-2.23c0-10.07.05-20.14-.08-30.21-.09-7.8-.43-15.59-.67-23.39-.22-7.22-.46-14.44-.68-21.66q-.36-11.68-.71-23.39-.33-10.65-.67-21.31l-.72-23.91q-.33-11.18-.69-22.35c-.23-7.57-.45-15.13-.71-22.7,0-1.24-.3-2.48-.46-3.71Z"/><path class="cls-1" d="M119.59,244.4c3.23,2,6.57,1.89,10-.23.05,1,.1,1.53.1,2.09,0,10.93,0,21.87,0,32.8,0,1.7-.51,2.22-2.17,2.13-2.31-.13-4.63-.06-6.94,0-.91,0-1.41-.25-1.4-1.27q0-17.44,0-34.88C119.31,244.91,119.4,244.8,119.59,244.4Z"/></svg>