<svg id="Layer_1" data-name="Layer 1" xmlns="http://www.w3.org/2000/svg" viewBox="0 0 241.82 285"><defs><style>.cls-1{fill:#fff;}</style></defs><title>MySQL</title><path class="cls-1" d="M5.61,22.69c.4-1.19.72-2.41,1.22-3.55a12.57,12.57,0,0,1,13.65-7.86C30.82,12.48,39.91,16.8,48,23.18a14.82,14.82,0,0,0,9.41,3.71,62.9,62.9,0,0,1,31.5,9.18c23.56,14.18,42.95,32.52,56.71,56.42,3.65,6.34,6,13.39,9.16,20.06,5.15,11,10.47,22,15.59,33.08,1.84,4,4.75,6.22,8.87,7.74,14.56,5.39,27.23,14,38.86,24.13,4.12,3.59,7.56,7.95,11.29,12,1,1.09.74,1.87-.73,2.18-4.78,1-9.56,2.07-14.35,3.07-6,1.25-12.07,2.45-18.79,3.82,1.15,1.63,1.82,3.17,3,4.1a61.76,61.76,0,0,0,8.87,6.34,73.78,73.78,0,0,1,22.9,19.63c.77,1,1.85,1.74,2.63,2.73,1.7,2.15,3.31,4.38,5,6.57l-.64.58a9.27,9.27,0,0,1-1.34-.86,84.65,84.65,0,0,0-24.42-15.8c-7-3-13.11-7.34-18.94-12.11a33,33,0,0,1-9.54-13.55c-.68-1.68.56-2.45,1.72-2.81,5.46-1.68,10.88-3.63,16.47-4.65,5.16-.94,10.51-.82,15.78-1.15.8,0,1.6,0,3,0a14.15,14.15,0,0,0-1.81-2.64,43.43,43.43,0,0,0-4.23-3.28c-3.54-2.46-7.26-4.69-10.68-7.32a72.75,72.75,0,0,0-27.15-13c-7-1.74-11.77-5.59-14.7-12.06-6.48-14.29-13.2-28.47-19.49-42.84a126.77,126.77,0,0,0-19-30.36C109,59.41,92.48,46.3,72.34,38a38.31,38.31,0,0,0-13.23-2.81,96.76,96.76,0,0,1-9.79-.68,8.17,8.17,0,0,1-4.09-2c-6.44-6-14.35-9.23-22.39-12.18a13.48,13.48,0,0,0-6.69-.61A4.2,4.2,0,0,0,13,25.53a52.9,52.9,0,0,0,4.63,8.81,66.27,66.27,0,0,0,5,6.55c6.23,7.62,10.16,16.36,12.89,25.75,2,6.85,4,13.74,7.9,19.83A41.48,41.48,0,0,0,49,93.65c2.91,2.89,3.93,6,2.67,9.92-1.38,4.23-3.11,8.38-4.19,12.69-3.82,15.26-3.12,30.22,3.62,44.66,1.21,2.6,2.71,5,5.42,6.31,1.47.73,2.31.58,2.54-1.3.58-4.87,1.27-9.73,1.94-14.6,1-7.26,4.84-13,10-18.23,9.11,22.82,20.09,44.4,37.9,61.93-1.29-1-2.66-1.87-3.88-2.93-4.14-3.62-8.31-7.23-12.34-11-3.16-2.94-6.16-6-9.2-9.12-4.82-4.87-7.32-11.15-10.33-17.11-.52-1-1.08-2.05-1.62-3.07l-.66,0c-.61,3.52-1.21,7-1.83,10.56a61.42,61.42,0,0,1-1.41,7.44A8.66,8.66,0,0,1,54.87,175a20.85,20.85,0,0,1-5.73-4.86c-6.07-7.27-8.59-16-9.93-25.19-1.76-12-.22-23.73,3.32-35.26.78-2.54,1.68-5.06,2.27-7.65a3.84,3.84,0,0,0-.56-3C36.7,91.26,33.11,81.4,29.6,71.5c-1.47-4.13-2.55-8.39-4.11-12.48a36.77,36.77,0,0,0-3.95-7.69c-2.77-4-5.84-7.9-8.87-11.77A35.85,35.85,0,0,1,5.61,25.82Z"/><path class="cls-1" d="M57.74,57.27c5-1.79,8-.38,10.79,5.1,1.16,2.28-.23,6.2-2.56,7.7Z"/></svg>