<svg id="Layer_1" data-name="Layer 1" xmlns="http://www.w3.org/2000/svg" viewBox="0 0 241.82 285"><defs><style>.cls-1{fill:#fff;}</style></defs><title>Node.js</title><path class="cls-1" d="M232.07,144.46V196.8c0,7.89-3.38,13.88-10.21,17.83Q176.24,241,130.6,267.32c-6.67,3.84-13.42,3.8-20.06-.09-10.11-5.92-20.16-11.91-30.24-17.87a4.57,4.57,0,0,1-1-.67c-.58-.63-1.1-1.32-1.64-2a12.35,12.35,0,0,1,2.05-1.52c4.22-2,8.52-3.76,12.71-5.79a3.84,3.84,0,0,1,4.11.24c7.09,4.26,14.25,8.4,21.3,12.72a4.88,4.88,0,0,0,5.66,0q44.63-25.86,89.34-51.58a4.83,4.83,0,0,0,2.75-4.71q-.08-51.6,0-103.21a5,5,0,0,0-2.85-4.91Q168,62.23,123.34,36.39a4.82,4.82,0,0,0-5.45,0Q73,62.38,28.12,88.24a4.31,4.31,0,0,0-2.37,4.17q.06,52,0,104a4.26,4.26,0,0,0,2.38,4.15C36.1,205,44,209.72,52,214.22c4.08,2.3,8.45,3.57,13.21,2.52a11.5,11.5,0,0,0,9.19-10.49c.08-1,.07-2,.07-2.94v-100c0-5.38.22-5.6,5.47-5.6h7.62c3.2,0,4,.84,4,4.12,0,1.15,0,2.29,0,3.44q0,49.77,0,99.53a47.22,47.22,0,0,1-1,9.25C88.1,226.11,79.13,233.29,66.81,234c-8.78.48-16.7-1.84-24.19-6q-12-6.69-23.84-13.72c-6.73-4-9.61-10.21-9.6-17.93q0-50.62,0-101.24c0-1,0-2,0-2.95C9.25,84.07,12.68,78,19.73,74q34-19.55,67.85-39.2c7.3-4.22,14.62-8.41,21.9-12.68,7.46-4.38,14.81-4.35,22.32,0q44.94,26.07,89.95,52c6.82,4,10.3,9.87,10.31,17.76Q232.09,118.17,232.07,144.46Z"/><path class="cls-1" d="M152.11,205.65c-11-.16-21.77-1.07-32-5.28-14.25-5.84-21.83-16.4-22.37-31.88-.1-2.88,1-4.17,3.81-4.24,3.93-.09,7.86,0,11.79,0,2.3,0,3.74,1,4,3.41.08.81.3,1.61.46,2.41,1.62,8,6.44,13.18,14.35,15.09a86.63,86.63,0,0,0,38.71.35,23.07,23.07,0,0,0,7.57-3.33c4.57-3,6.62-9.37,5.08-14.59a7.87,7.87,0,0,0-5.3-5.43,130.88,130.88,0,0,0-16.79-4.42c-10.64-1.8-21.4-2.89-32.06-4.6a51.84,51.84,0,0,1-11-3.37c-11.84-4.8-17.45-13.75-17-26.52.37-11.8,5.92-20.36,16.13-26a53,53,0,0,1,21.82-6.16c12.31-1,24.57-.72,36.45,3.23,15,5,23.52,16.13,24.6,31.88.2,2.76-.85,4-3.63,4-4,.05-8,0-12,0a3.48,3.48,0,0,1-3.84-3c-.26-1.11-.59-2.21-.94-3.31-2.24-7.08-7-11.61-14.2-13.24a71.47,71.47,0,0,0-32.14-.06,21.77,21.77,0,0,0-6.49,2.82c-4.31,2.69-6.21,8.6-4.65,13.42a6.74,6.74,0,0,0,4.8,4.56c5.67,1.54,11.37,3.06,17.15,4.09,10.39,1.87,20.86,3.25,31.25,5.1a60.32,60.32,0,0,1,10.81,3.18c13.31,5.06,19,14.21,18.07,28.41-.84,13.09-7.64,22-19.23,27.44C174.7,204.53,163.48,205.57,152.11,205.65Z"/></svg>