<svg id="Layer_1" data-name="Layer 1" xmlns="http://www.w3.org/2000/svg" viewBox="0 0 241.82 285"><defs><style>.cls-1{fill:#fff;}</style></defs><title>Perl</title><path class="cls-1" d="M80.22,277.77H77.89c-.93-.13-1.86-.24-2.78-.39a17.59,17.59,0,0,1-8-3.31,2.28,2.28,0,0,1-.92-1.73,3.6,3.6,0,0,1,1.51-3.11,16.17,16.17,0,0,1,5.78-3.09,9.57,9.57,0,0,0,6.85-6.78,12.45,12.45,0,0,1,.58-1.54,68.25,68.25,0,0,0,6.53-34.71c-.11-1.45-.33-2.9-.4-4.35a91.34,91.34,0,0,0-1.92-15,35.42,35.42,0,0,1-1-5.53,101.07,101.07,0,0,0-1.69-13,39,39,0,0,1-1.08-6.7c0-3.3-.08-6.6-.09-9.91A56.57,56.57,0,0,0,80.6,158c-.16-.84-.37-1.67-.57-2.6l-.78.52a27.61,27.61,0,0,1-9.77,4.37c-.85.2-1.68.45-2.51.72a5.41,5.41,0,0,1-6.31-2.38c-.14-.22-.23-.46-.37-.68a1.34,1.34,0,0,0-2.06-.51,14.22,14.22,0,0,0-1.42,1.17c-.49.42-1,.89-1.48,1.26-.81.56-1.38.41-2-.37A19.21,19.21,0,0,0,52,157.89a63.24,63.24,0,0,0-7.42-6.25,14.31,14.31,0,0,1-1.29-1,15.05,15.05,0,0,0-6.17-3.34c-1.12-.31-1.42-.62-1.5-1.79a15.75,15.75,0,0,1,0-1.94c0-.39.07-.77.07-1.16a3.09,3.09,0,0,0-1.27-2.7,1.85,1.85,0,0,1-.49-.58,1.29,1.29,0,0,0-1.48-.66c-.38.08-.75.18-1.13.28-1.19.28-1.77,0-2.23-1.1-.38-.93-.63-1.91-.94-2.86s-.61-2-1-2.93A4.84,4.84,0,0,0,25,129.48a7.18,7.18,0,0,1-1.53-1.16,10.87,10.87,0,0,1-2.37-3.74,20.65,20.65,0,0,1-1.34-6.15q-.54-7.5-1-15a96.89,96.89,0,0,1,.49-16.77,9.52,9.52,0,0,1,.81-2.87c2.14-4.72,4-9.55,5.69-14.45.08-.23.13-.48.19-.73a10.36,10.36,0,0,0-4.64-2.22c-2.28-.46-4.58-.8-6.88-1.18a19.13,19.13,0,0,1-5-1.38,8.47,8.47,0,0,1-4.89-5.21,1.61,1.61,0,0,0-.25-.41V56.06a3.35,3.35,0,0,0,.33-.69,12.77,12.77,0,0,1,3-5.68c1.54-1.74,3.21-3.37,4.83-5a7.9,7.9,0,0,1,4.47-2.37c1.66-.27,3.34-.37,5-.59A29.61,29.61,0,0,0,26,41a32.32,32.32,0,0,1,4.46-.9,23.44,23.44,0,0,0,3.41-.7,3.88,3.88,0,0,0,2.72-2.92A5.27,5.27,0,0,1,39,33.26c.95-.61,2-1.07,3-1.65a26.06,26.06,0,0,0,3-2,4.05,4.05,0,0,1,2.28-.95,4.89,4.89,0,0,1,2.63.53c1.07.53,2.13,1.1,3.17,1.68a12.55,12.55,0,0,0,3.49,1.44,3.5,3.5,0,0,1,1,.48,40.91,40.91,0,0,1,10.2,8.9,7.3,7.3,0,0,1,1.66,3.95c.14,1.12.33,2.24.57,3.34a4.31,4.31,0,0,0,1.64,2.68,6.48,6.48,0,0,1,1.67,1.87,15,15,0,0,1,2.12,5.38,43.15,43.15,0,0,1,.5,9.29c-.06,2.4-.15,4.8,0,7.19a19,19,0,0,1-1.66,9.54,2.85,2.85,0,0,0-.33.91,12.78,12.78,0,0,1-1.47,4.29c-.49,1-1,2-1.45,3.07a7.88,7.88,0,0,0-.58,3.51c.07,1.16,0,2.32,0,3.48,0,1-.1,1.94-.1,2.91a3.13,3.13,0,0,0,.24,1.13,1.5,1.5,0,0,0,1.56.93c.69,0,1.28-.17,1.49-1s.46-1.42.62-2.14c.4-1.8.64-3.64,1.17-5.4.74-2.51,1.63-5,2.54-7.44A65,65,0,0,1,85.66,74,34.61,34.61,0,0,1,97.4,63.26a6.78,6.78,0,0,0,1-.72,53.14,53.14,0,0,0,16.72-23.19,12.56,12.56,0,0,1,2.6-4.26c.76-.8,1.53-1.59,2.32-2.35,1.07-1,2.18-2,3.26-3.06a21.35,21.35,0,0,0,4.3-5.35,1.07,1.07,0,0,1,.84-.55c1.58-.37,3.15-.76,4.72-1.14a34.7,34.7,0,0,0,9.86-4,15,15,0,0,1,8.7-2.55,33.44,33.44,0,0,0,5.8-.52c1.24-.15,2.46-.48,3.69-.73h.39c.29.13.57.28.86.38,2.41.86,4.83,1.67,7.22,2.56a16,16,0,0,1,3.8,1.93A33.53,33.53,0,0,1,187,39.82,34.48,34.48,0,0,0,189,45.41a65.94,65.94,0,0,0,6.85,11.71c2.69,3.81,5.46,7.57,8.11,11.4a53.05,53.05,0,0,1,7,13.59,5.7,5.7,0,0,0,.35.8A98.22,98.22,0,0,0,228,107.09a17.44,17.44,0,0,1,3.62,5.8,37.28,37.28,0,0,1,1.69,6.57c.51,2.73,1,5.47,1.55,8.2a4,4,0,0,0,.94,2,5.4,5.4,0,0,1,1.45,3.61,2.18,2.18,0,0,1-1.56,2.22l-.81.25c0,.37,0,.72.09,1.06.31,1.72.66,3.43.94,5.15a6,6,0,0,1-.8,4.2,5.32,5.32,0,0,0-.47,1.16,115.12,115.12,0,0,1-7.52,18.5c-.43.84-.81,1.7-1.23,2.54a5,5,0,0,1-2.41,2.43,1.68,1.68,0,0,1-2.61-1.21,13.54,13.54,0,0,1-.29-1.91c-.33-2.47-.73-4.93-1-7.41a12,12,0,0,1,1.94-8.43,2.44,2.44,0,0,0,.33-.89,35.32,35.32,0,0,0-.58-18.14,6,6,0,0,1-.22-1.8,18.45,18.45,0,0,0-.81-6.23,16.06,16.06,0,0,0-2.18-4.53,2.15,2.15,0,0,0-1.24,1.35,8,8,0,0,0-.43,1.59c-.27,1.62-.54,3.25-.75,4.88-.42,3.21-.88,6.42-1.17,9.64a117.32,117.32,0,0,0-.29,15.91,120.89,120.89,0,0,0,2.34,18.87,29.26,29.26,0,0,1,.79,7.8c-.08,1.29-.18,2.58-.27,3.87a33,33,0,0,0,.08,7.37,2.81,2.81,0,0,0,.6,1.39,9.16,9.16,0,0,1,1.81,3.83,15.24,15.24,0,0,1,0,5.79c-.55,3.42-1.12,6.84-1.71,10.24a69.93,69.93,0,0,0-1,12,72,72,0,0,0,3.3,21.7,5.6,5.6,0,0,1,.29,1.12,58.2,58.2,0,0,0,2,10.47,1.6,1.6,0,0,1-.18,1.37,10.16,10.16,0,0,1-6.79,4.94,8.5,8.5,0,0,1-5.16-.3,7.25,7.25,0,0,0-3.21-.51,26.77,26.77,0,0,1-3.1.11,2.83,2.83,0,0,1-2.88-3.28,10.79,10.79,0,0,1,1.15-4.09c.58-1.23,1.19-2.44,1.76-3.68a10.46,10.46,0,0,0,1-3.93,7.83,7.83,0,0,1,.21-1.53,101.11,101.11,0,0,0,3.17-24.3,114.12,114.12,0,0,0-1.28-17c-.59-4.16-.85-8.37-1.23-12.56a64.9,64.9,0,0,0-1.37-9.31,6.17,6.17,0,0,0-1-2.18A58.26,58.26,0,0,1,195.21,165c-.46-1.51-.82-3.07-1.38-4.54a159,159,0,0,1-5.22-16l-.81-3.06c-.13.05-.21.05-.24.09a5.14,5.14,0,0,0-.32.49,64.55,64.55,0,0,0-9.87,31.91c-.16,3.63.14,7.25.32,10.87,0,.64.11,1.29.2,1.93.24,1.86.53,3.71.73,5.58.29,2.88-.17,5.56-2.33,7.71a3.62,3.62,0,0,0-.44.64c-1.15,1.72-2.31,3.44-3.43,5.18-2.37,3.63-4.79,7.24-7.06,10.93a46.66,46.66,0,0,0-4.85,11,3.41,3.41,0,0,0,.92,3.65,14.66,14.66,0,0,0,1.93,1.47c.74.51,1.53,1,2.27,1.49a5.71,5.71,0,0,1,1.89,2.29,33.39,33.39,0,0,1,3.37,12.09c.14,1.7,0,3.42,0,5.2-1.53.66-3.06,1.36-4.62,2a8.94,8.94,0,0,1-2,.48,3.94,3.94,0,0,1-4-1.68c-.23-.31-.41-.66-.62-1-1.83-2.82-3.67-5.65-5.51-8.46a9.23,9.23,0,0,0-.62-.8,9.41,9.41,0,0,0-.89,3.13c-.24,1.34-.42,2.69-.76,4a4.39,4.39,0,0,1-3,3.12,35.85,35.85,0,0,1-19.49,1.49,2.06,2.06,0,0,1-1.44-1,2.62,2.62,0,0,1-.29-2.42,8.51,8.51,0,0,1,1.23-2.18,10,10,0,0,1,4.3-3.06,14.32,14.32,0,0,0,8.52-8.77,5.59,5.59,0,0,1,.77-1.42,4.93,4.93,0,0,0-.17-6.2c-1.82-2-3.63-4.07-5.59-5.94-2.42-2.29-5-4.45-7.5-6.62-3.45-2.94-6.94-5.83-10.12-9.07a13.13,13.13,0,0,1-3-5,18.61,18.61,0,0,1-1-5.23,41.78,41.78,0,0,1,1.28-11.73,5.42,5.42,0,0,1,.53-1.35,18.47,18.47,0,0,0,2.1-11.92,13,13,0,0,1,.29-5.38c.38-1.47.8-2.94,1.15-4.41a5.45,5.45,0,0,0,.22-2.32,28.81,28.81,0,0,0-11.65,1.18c0,.31-.06.57-.07.82a139.19,139.19,0,0,1-1.2,17.43,3,3,0,0,1-.65,1.57,16.74,16.74,0,0,0-3.7,8.73,6.12,6.12,0,0,1-.93,3.29,2.25,2.25,0,0,0-.4,1.08c-.16,1.15-.34,2.3-.39,3.46-.09,2.23-.11,4.46-.15,6.69a4,4,0,0,0,0,.49,35.49,35.49,0,0,1-2.55,17.87,33.46,33.46,0,0,0-1.79,5.93,117.57,117.57,0,0,0-1.93,16.09A128.32,128.32,0,0,1,94,259.48,20.44,20.44,0,0,1,92.55,265a3.75,3.75,0,0,0-.31,1.6c0,1.23.07,2.46.1,3.69,0,.61,0,1.23,0,1.84a4,4,0,0,1-2.92,3.72,31.31,31.31,0,0,1-6.4,1.56Zm75.25-123.44a2.53,2.53,0,0,0-2,1.65,14.4,14.4,0,0,0-.61,2.43,29.72,29.72,0,0,1-.56,3.44,30.9,30.9,0,0,0-1,5.13,29.07,29.07,0,0,1-.75,3.69,4,4,0,0,1-1.82,2.55,2.73,2.73,0,0,0-1.21,1.57,8.64,8.64,0,0,0-.45,1.58c-.22,1.44-.41,2.88-.58,4.33a12.37,12.37,0,0,1-1.08,4.4,2.56,2.56,0,0,0-.23,1.58,19,19,0,0,1,.11,3.19c-.22,2.24-1.29,3-3,3a3.35,3.35,0,0,0-2.28,1,21.22,21.22,0,0,0-1.56,1.72c-.57.66-1.05,1.41-1.68,2a13.22,13.22,0,0,0-3.18,5.15,5.93,5.93,0,0,0,.71,5.65c1.44,2.11,2.87,4.24,4.37,6.3a22.86,22.86,0,0,0,2.41,2.79,6.82,6.82,0,0,0,4.51,2,8,8,0,0,1,3.15.87,14.1,14.1,0,0,0,2,.84,1.68,1.68,0,0,0,2.29-1,16.75,16.75,0,0,1,.88-1.61,39.26,39.26,0,0,0,6.36-23.7c-.37-6.89-1-13.76-1.86-20.6-.75-5.77-1.59-11.54-2.41-17.3C155.83,156.06,155.64,155.25,155.47,154.33Z"/><path class="cls-1" d="M155.47,154.33c.17.92.36,1.73.47,2.56.82,5.76,1.66,11.53,2.41,17.3.89,6.84,1.49,13.71,1.86,20.6a39.26,39.26,0,0,1-6.36,23.7,16.75,16.75,0,0,0-.88,1.61,1.68,1.68,0,0,1-2.29,1,14.1,14.1,0,0,1-2-.84,8,8,0,0,0-3.15-.87,6.82,6.82,0,0,1-4.51-2,22.86,22.86,0,0,1-2.41-2.79c-1.5-2.06-2.93-4.19-4.37-6.3a5.93,5.93,0,0,1-.71-5.65,13.22,13.22,0,0,1,3.18-5.15c.63-.6,1.11-1.35,1.68-2a21.22,21.22,0,0,1,1.56-1.72,3.35,3.35,0,0,1,2.28-1c1.72,0,2.79-.72,3-3a19,19,0,0,0-.11-3.19,2.56,2.56,0,0,1,.23-1.58,12.37,12.37,0,0,0,1.08-4.4c.17-1.45.36-2.89.58-4.33a8.64,8.64,0,0,1,.45-1.58,2.73,2.73,0,0,1,1.21-1.57,4,4,0,0,0,1.82-2.55,29.07,29.07,0,0,0,.75-3.69,30.9,30.9,0,0,1,1-5.13,29.72,29.72,0,0,0,.56-3.44,14.4,14.4,0,0,1,.61-2.43A2.53,2.53,0,0,1,155.47,154.33Z"/></svg>