<svg id="Layer_1" data-name="Layer 1" xmlns="http://www.w3.org/2000/svg" viewBox="0 0 396.81 208.49"><defs><style>.cls-1{fill:#fff;}</style></defs><title>PHP</title><path class="cls-1" d="M206.15,201.88q-16,.08-32-1.4a279.17,279.17,0,0,1-58.53-11.54,188.51,188.51,0,0,1-45-20.49A110.76,110.76,0,0,1,46.27,148c-7.59-8.7-13.25-18.42-15.62-29.86a54.85,54.85,0,0,1,5-36.57c5.17-10.36,12.67-18.83,21.47-26.22C71,43.73,86.85,35.56,103.7,29.17A251.62,251.62,0,0,1,149,16.89a307.17,307.17,0,0,1,33.26-4.06,336.46,336.46,0,0,1,39.41-.3,298.58,298.58,0,0,1,58.05,8.52,215,215,0,0,1,47,17.49c12.71,6.63,24.44,14.62,34.31,25.13,7.81,8.32,13.88,17.69,16.9,28.82,3.76,13.88,2.15,27.23-4.26,40A80.26,80.26,0,0,1,355,156.21c-11.59,10.41-24.88,18.14-39.07,24.4a237.12,237.12,0,0,1-49.41,15.32,266.31,266.31,0,0,1-33.85,4.73c-8.83.62-17.67,1-26.5,1.51Zm-6-14.51a366.77,366.77,0,0,0,37.62-1.82,280.62,280.62,0,0,0,35.27-6,205.43,205.43,0,0,0,46.16-16.61,117.94,117.94,0,0,0,27.72-19.06c6.2-5.88,11.43-12.47,14.86-20.36A40.2,40.2,0,0,0,365.17,104a45.51,45.51,0,0,0-8.25-22.22c-5.79-8.5-13.31-15.27-21.7-21.12C323.15,52.27,310,46.11,296.11,41.24a254.17,254.17,0,0,0-51.28-12,313.6,313.6,0,0,0-81.12.08A268,268,0,0,0,132,35.55,210.48,210.48,0,0,0,96.54,48C85.13,53.26,74.38,59.58,64.9,67.92A67.05,67.05,0,0,0,49,87.63c-4.95,9.66-6.34,19.73-3.36,30.26,2.47,8.71,7.34,16,13.47,22.55,8.35,8.9,18.29,15.66,29,21.37a200.09,200.09,0,0,0,45.42,17A258.1,258.1,0,0,0,176.35,186C185.82,186.7,195.31,187.09,200.11,187.37Z"/><path class="cls-1" d="M264.14,128.9c-1.29,7.34-2.56,14.53-3.84,21.79H241q7.4-40.09,14.78-80.18h1.08c12.87,0,25.74,0,38.62,0a28.73,28.73,0,0,1,14.93,3.84C318.05,78.94,321.33,86,321,94.63a39.09,39.09,0,0,1-6.46,20.3c-4.05,6.2-10,9.74-17,11.67-6.63,1.82-13.42,2.22-20.25,2.3-3.94,0-7.89,0-11.84,0Zm8.24-43.78c-1.85,9.74-3.68,19.38-5.53,29.16h1.35c3.71,0,7.43.07,11.15,0a77.36,77.36,0,0,0,8.47-.55c6.05-.83,10.52-3.95,12.49-9.88a34.36,34.36,0,0,0,1.6-8.29c.32-4.43-1.85-7.54-5.89-9.12a11.41,11.41,0,0,0-2.53-.73,44.05,44.05,0,0,0-5.36-.55C282.92,85.07,277.71,85.12,272.38,85.12Z"/><path class="cls-1" d="M107,150.73H87.68c4.93-26.74,9.85-53.42,14.78-80.22h1.15c12.87,0,25.75-.05,38.62,0,6.14,0,11.92,1.48,16.93,5.2a20.26,20.26,0,0,1,8.47,16A37.09,37.09,0,0,1,159,117.8c-4.32,5.18-10.22,7.77-16.65,9.27a84.4,84.4,0,0,1-18.48,1.83q-6,0-12.07,0c-.73,0-1,.17-1.17,1C109.46,136.8,108.21,143.72,107,150.73Zm12.09-65.65c-1.85,9.78-3.67,19.42-5.51,29.14.52,0,.9.06,1.27.06,3.76,0,7.51.07,11.26,0a74.66,74.66,0,0,0,8.47-.56c5.08-.71,9.2-3,11.58-7.81a23.39,23.39,0,0,0,2.48-11.43,8.18,8.18,0,0,0-5.75-7.93,20.74,20.74,0,0,0-5.9-1.26c-5.32-.21-10.65-.15-16-.19C120.38,85.07,119.77,85.08,119.06,85.08Z"/><path class="cls-1" d="M168.18,128.9c6.11-29.24,12.19-58.35,18.29-87.52h19.12c-2,9.68-4,19.34-6.05,29.13h1.38c5.83,0,11.65-.05,17.48,0,5.22.06,10.41.43,15.37,2.27,6,2.23,9.25,7,9.43,13.45.13,5-1.13,9.79-2.16,14.61-1.94,9.05-3.95,18.07-5.91,27.12-.13.59-.23.95-1,.95-6,0-12.11,0-18.16,0a3.69,3.69,0,0,1-.47-.1c.43-2.05.87-4.09,1.3-6.12,1.92-8.9,3.9-17.78,5.7-26.7a22,22,0,0,0,.14-5.91,4,4,0,0,0-3-3.73,29.46,29.46,0,0,0-6.62-1.16c-5.2-.18-10.42-.06-15.63-.13-1,0-1,.61-1.13,1.22q-2.58,12.18-5.13,24.35c-1.22,5.8-2.46,11.6-3.67,17.4-.11.54-.21.9-.9.9C180.53,128.89,174.44,128.9,168.18,128.9Z"/></svg>