<?xml version="1.0" encoding="UTF-8"?>
<svg xmlns="http://www.w3.org/2000/svg" xmlns:xlink="http://www.w3.org/1999/xlink" viewBox="0 0 26 26" version="1.1" width="50px" height="50px">
<g id="surface1">
<path style="fill:#fff" d="M 7.75 1 C 6.25 1 5.0625 2.21875 5.0625 3.71875 C 5.0625 4.984375 5.925781 6.015625 7.09375 6.3125 C 7.984375 6.730469 9.300781 7.378906 9.5625 7.90625 C 9.9375 8.582031 10.25 9.824219 10.21875 10.78125 C 10.21875 10.792969 10.21875 10.800781 10.21875 10.8125 C 9.753906 11.464844 9.46875 12.269531 9.46875 13.125 C 9.46875 15.324219 11.269531 17.125 13.46875 17.125 C 15.667969 17.125 17.46875 15.324219 17.46875 13.125 C 17.46875 10.925781 15.667969 9.023438 13.46875 9.125 C 13.125 9.125 12.789063 9.167969 12.46875 9.25 C 11.410156 8.8125 10.734375 8.078125 10.375 7.5 C 10.085938 7.035156 10.128906 5.828125 10.21875 4.84375 C 10.375 4.503906 10.46875 4.121094 10.46875 3.71875 C 10.46875 2.21875 9.25 1 7.75 1 Z M 17.5625 1 C 16.0625 1 14.875 2.21875 14.875 3.71875 C 14.875 5.21875 16.0625 6.40625 17.5625 6.40625 C 19.0625 6.40625 20.25 5.21875 20.25 3.71875 C 20.25 2.21875 19.0625 1 17.5625 1 Z M 23.25 9.5 C 21.75 9.5 20.5625 10.71875 20.5625 12.21875 C 20.5625 13.71875 21.75 14.90625 23.25 14.90625 C 24.75 14.90625 25.96875 13.71875 25.96875 12.21875 C 25.96875 10.820313 24.75 9.5 23.25 9.5 Z M 2.65625 9.90625 C 1.15625 9.90625 -0.03125 11.125 -0.03125 12.625 C -0.03125 14.125 1.15625 15.3125 2.65625 15.3125 C 4.15625 15.3125 5.375 14.125 5.375 12.625 C 5.375 11.226563 4.15625 10.007813 2.65625 9.90625 Z M 7.875 19 C 6.375 19 5.15625 20.21875 5.15625 21.71875 C 5.15625 23.21875 6.375 24.40625 7.875 24.40625 C 9.375 24.40625 10.5625 23.21875 10.5625 21.71875 C 10.5625 20.21875 9.375 19 7.875 19 Z M 18.5625 19 C 17.0625 19 15.875 20.21875 15.875 21.71875 C 15.875 23.21875 17.0625 24.40625 18.5625 24.40625 C 20.0625 24.40625 21.25 23.21875 21.25 21.71875 C 21.25 20.21875 20.0625 19 18.5625 19 Z "/>
</g>
</svg>
