<svg id="Layer_1" data-name="Layer 1" xmlns="http://www.w3.org/2000/svg" viewBox="0 0 241.82 259.5"><defs><style>.cls-1{fill:#fff;}</style></defs><title>PostgreSQL</title><path class="cls-1" d="M190.65,155.48c-2.14,1.23-4.08,2.22-5.89,3.41a101.84,101.84,0,0,0-9.6,6.66,21.68,21.68,0,0,0-8,17.75q.21,21,0,42a37,37,0,0,1-1.2,9.13c-2.34,8.84-9,14.7-17.53,15.75-9.26,1.14-16.35-2.39-21.07-10.84a51,51,0,0,1-6.55-24c-.3-14.73-.12-29.46,0-44.19.1-8.81-1.05-10.61-9.57-13.28-.6-.19-1.19-.41-2.19-.75.75-1.85,1.38-3.69,2.21-5.44,11.1-23.5,11.28-47.92,6.13-72.78a38.5,38.5,0,0,0-1.6-5.2c-2-5.4-5.95-8.16-11.55-9.09-9.13-1.53-17.65,1.1-26.22,3.52-1.13.32-2.23.75-3.42,1.15-.12-.3-.32-.54-.28-.74,2.56-13,7.18-25,16.39-34.75,11.44-12.16,26-16.42,42.21-16.12,22.48.41,39.16,10.78,50.24,30.16,2.9,5.07,5.06,10.57,7.66,16.09-1.22.21-1.84.37-2.46.42-14.33,1.23-21.12,14.11-21.28,24.89A70.25,70.25,0,0,0,173,117.37c3.72,8.95,8.23,17.57,12.35,26.35C187.12,147.57,188.83,151.46,190.65,155.48Z"/><path class="cls-1" d="M60.81,191c-3.81,2-7.33,1.22-10.79-.07-5.74-2.13-10-6.24-13.68-10.91-8.41-10.61-13.67-22.87-18.11-35.5A251,251,0,0,1,4.73,84.06c-1-11.31-.28-22.52,3.68-33.32,7.54-20.56,26.76-33.29,50-33.11,9.24.07,18.12,2,27.13,4.94a11.23,11.23,0,0,1-1,1.24c-12,11.74-18.79,26.35-21.4,42.61-1.26,7.86,0,16.11,0,24.18s.5,16.25-.57,24.2c-2.23,16.58,7.67,36.47,22,42.54a20,20,0,0,1,1.82,1.07L74.1,163.52c-3.75,1.56-7.79,2.68-11.2,4.8-8.36,5.21-9.41,14.22-2.91,21.6C60.22,190.19,60.42,190.48,60.81,191Z"/><path class="cls-1" d="M174.16,17.86c2.64,0,6.78-.3,10.86.05,18.51,1.56,34,9.2,46.07,23.46a22.63,22.63,0,0,1,5.74,14.13c.79,29-4.07,56.81-18.68,82.34a65.26,65.26,0,0,1-13.57,16.76c-3.59-3.36-5.12-7.82-6.82-12.15a4.28,4.28,0,0,1,.32-2.36c1.27-4.64,2.73-9.23,3.84-13.91,1.54-6.44,1.29-13,.49-19.51A64.26,64.26,0,0,1,202,94.2c.5-6.54,0-13.07.24-19.53.7-17-6.51-30.58-16.37-43.3C182.07,26.51,177.8,22,174.16,17.86Z"/><path class="cls-1" d="M107.46,90.24c3.58,20.83,1.53,40.9-8.55,60.14-6-1.53-11.92-3.59-16.3-8.57A33.2,33.2,0,0,1,74.12,116c.8-9.93.46-20,.27-29.93-.06-2.86.35-4.44,3.25-5.4,7.43-2.44,14.79-5.15,22.77-4.69,4.32.25,4.43.51,5.48,4.6.2.78.31,1.57.36,1.8-3.66-.27-7.38-1-11-.71s-4.37,2.29-2.55,5.5C96.12,93.24,100.56,94.16,107.46,90.24Z"/><path class="cls-1" d="M109.13,176a2.43,2.43,0,0,1,0,.27c0,6.71-.63,7.53-7.22,9.63-7.82,2.49-15.62,1.51-23.39-.25a49.18,49.18,0,0,1-8-2.4c-1.09-.44-2.53-1.91-2.46-2.82.08-1.13,1.38-2.4,2.47-3.16a13,13,0,0,1,4.24-1.78c6.86-1.68,13.05-4.86,19.16-8.28a5.77,5.77,0,0,1,3.51-.53c3,.47,5.84,1.3,8.78,1.83,2.31.41,3.55,1.39,3.07,4a19.79,19.79,0,0,0,0,3.53Z"/><path class="cls-1" d="M179.42,187.38c-1.4-6.58.32-11.68,6-15.18q5.07-3.15,10.21-6.2a4.7,4.7,0,0,1,1.8-.47c5-.63,10-1.36,15.09-1.78,1.75-.14,3.56.5,5.35.78-.48,1.73-.5,3.84-1.54,5.12a34.21,34.21,0,0,1-7.23,6.89,68.28,68.28,0,0,1-26.53,10.62A30.12,30.12,0,0,1,179.42,187.38Z"/><path class="cls-1" d="M179,94c2.72-1.53,5.24-2.48,7.09-4.17a6.82,6.82,0,0,0,1.9-5c-.19-2.25-2.52-2.82-4.55-3.18-.6-.11-1.22-.15-2.05-.24,1.8-3.86,4.92-5,9.26-5.38.07,3.87.58,7.58.11,11.16-1.1,8.56-.37,17,.44,25.51.42,4.48-.45,9.09-1.25,13.67C184.31,115.91,180.24,105.11,179,94Z"/></svg>