<svg id="Layer_1" data-name="Layer 1" xmlns="http://www.w3.org/2000/svg" viewBox="0 0 241.82 285"><defs><style>.cls-1{fill:#fff;}</style></defs><title>Python</title><path class="cls-1" d="M152.22,142.9l2.74-.07a35.49,35.49,0,0,0,15.58-3.63,28.23,28.23,0,0,0,13.14-14.26,40.77,40.77,0,0,0,3.27-13.4c.07-.91.09-1.83.09-2.74q0-14,0-27.88c0-.53.11-.71.67-.7,6.7,0,13.41,0,20.11,0a24.65,24.65,0,0,1,12,3.42,34.24,34.24,0,0,1,13.06,13.65,62.47,62.47,0,0,1,6.46,18.47c.46,2.27.85,4.54,1.11,6.84a.67.67,0,0,0,.1.21v32.55a33.62,33.62,0,0,0-.6,3.45c-1.33,7.44-3.47,14.61-7.44,21.11-4.42,7.25-10.46,12.54-18.6,15.24a29.73,29.73,0,0,1-10.58,1.59c-2.93-.11-5.86-.06-8.79-.06H121.89c-.91,0-.79-.09-.8.8,0,2.23,0,4.46,0,6.7,0,.59.12.76.74.75q18.77,0,37.51,0l.78,0a1.18,1.18,0,0,1-.48.85c-1.75,1.74-3.41,3.56-5.12,5.34l-5.74,6c-1.77,1.84-3.52,3.68-5.28,5.52L138,228.44c-1.79,1.87-3.57,3.74-5.36,5.6S128.84,238,127,239.9l-5.41,5.65c-1.83,1.91-3.67,3.81-5.48,5.73-1.6,1.69-3.27,3.33-4.87,5-.48.5-.93,1-1.42,1.52a.59.59,0,0,0-.19.48,65,65,0,0,1-6.53-.63,92,92,0,0,1-9.74-1.75,55.55,55.55,0,0,1-17.48-7,27.75,27.75,0,0,1-10.57-11.66,13.1,13.1,0,0,1-1-2.51c.43,0,.5-.41.73-.64,1.93-1.92,3.79-3.92,5.67-5.89s3.51-3.64,5.24-5.48c2-2.14,4-4.24,6.08-6.33,1.66-1.69,3.27-3.43,4.91-5.14l5.7-5.94c1.74-1.81,3.47-3.63,5.2-5.44l5.54-5.77c1.79-1.87,3.59-3.73,5.36-5.61,2-2.15,4.07-4.26,6.13-6.37,1.64-1.68,3.24-3.4,4.86-5.09l5.62-5.87,5.28-5.52,5.67-5.9,5.24-5.48c1.88-2,3.78-3.92,5.65-5.9,1.55-1.64,3.14-3.23,4.72-4.84A.78.78,0,0,0,152.22,142.9Z"/><path class="cls-1" d="M151.27,23.17c6.7,1.76,13,4.3,18.51,8.7a24.67,24.67,0,0,1,9.05,13.84,17.23,17.23,0,0,1,.45,5.81,6.77,6.77,0,0,0,0,.78c0,17.71,0,35.42,0,53.14a31.18,31.18,0,0,1-3.48,14.71,27,27,0,0,1-13.27,12.11,39.65,39.65,0,0,1-16.42,3.47c-19.44,0-38.89,0-58.34,0A34.27,34.27,0,0,0,72.8,139a27.88,27.88,0,0,0-13.55,14,39.76,39.76,0,0,0-3.66,16.91q0,13.92,0,27.83c0,.49-.12.63-.62.63-6.74,0-13.48,0-20.23,0A24.87,24.87,0,0,1,22,194.45a34.13,34.13,0,0,1-11.58-12A56.16,56.16,0,0,1,4.78,169a.48.48,0,0,1,0-.12c.51-.45,1-.89,1.53-1.37,11.73-11.64,23.34-23.41,35.11-35,12.17-12,24.12-24.22,36.32-36.19,4.62-4.53,9.17-9.15,13.75-13.74.19-.19.45-.36.4-.69l.72,0q14.11,0,28.24,0c.58,0,.72-.16.71-.73q0-3.43,0-6.88c0-.52-.11-.66-.65-.66q-9.6,0-19.21,0H101c0-.3.27-.43.45-.61q7.4-7.4,14.85-14.75c11.52-11.4,22.86-23,34.45-34.32C151,23.72,151.27,23.55,151.27,23.17Z"/><path class="cls-1" d="M152.22,142.9a.78.78,0,0,1-.29.62c-1.58,1.61-3.17,3.2-4.72,4.84-1.87,2-3.77,3.93-5.65,5.9l-5.24,5.48-5.67,5.9-5.28,5.52L119.75,177c-1.62,1.69-3.22,3.41-4.86,5.09-2.06,2.11-4.11,4.22-6.13,6.37-1.77,1.88-3.57,3.74-5.36,5.61l-5.54,5.77c-1.73,1.81-3.46,3.63-5.2,5.44L87,211.25c-1.64,1.71-3.25,3.45-4.91,5.14-2,2.09-4.08,4.19-6.08,6.33-1.73,1.84-3.49,3.65-5.24,5.48s-3.74,4-5.67,5.89c-.23.23-.3.64-.73.64a18.9,18.9,0,0,1-1-7.57c0-.32.06-.64.06-.95q0-26.57,0-53.13a31.39,31.39,0,0,1,3.22-14.14,26,26,0,0,1,10.11-10.81,37.75,37.75,0,0,1,15-5,40.84,40.84,0,0,1,5.19-.3h54.44A2.33,2.33,0,0,1,152.22,142.9Z"/><path class="cls-1" d="M91.89,81.9c0,.33-.21.5-.4.69-4.58,4.59-9.13,9.21-13.75,13.74-12.2,12-24.15,24.2-36.32,36.19-11.77,11.6-23.38,23.37-35.11,35-.49.48-1,.92-1.53,1.37a62.33,62.33,0,0,1-1.68-7C2.42,158.28,2,154.64,1.65,151a144.43,144.43,0,0,1-.45-14.85c0-1.44,0-2.88.12-4.31s.19-2.88.34-4.32a97.52,97.52,0,0,1,1.67-11A57,57,0,0,1,10,98.8,34.59,34.59,0,0,1,24.9,85,31.21,31.21,0,0,1,38.71,81.8c17.51.17,35,0,52.53.07Z"/><path class="cls-1" d="M151.27,23.17c0,.38-.31.55-.53.77-11.59,11.33-22.93,22.92-34.45,34.32Q108.85,65.61,101.44,73c-.18.18-.43.31-.45.61l-.6,0q-18.19,0-36.38,0c-.59,0-.71-.16-.71-.72,0-8.76,0-17.52-.06-26.27a17.73,17.73,0,0,1,1.09-6.79,21.21,21.21,0,0,1,6.77-8.74,42,42,0,0,1,13.68-6.9,88.43,88.43,0,0,1,17.43-3.5q2.83-.32,5.68-.49c1.5-.09,3-.14,4.51-.24,3.54-.25,7.09-.23,10.63-.2,2.21,0,4.42.08,6.62.24,2,.14,4,.23,6,.44A97.89,97.89,0,0,1,151.27,23.17ZM77.88,48.68A10.47,10.47,0,1,0,88.39,38.21,10.46,10.46,0,0,0,77.88,48.68Z"/><path class="cls-1" d="M109.6,258.3a.59.59,0,0,1,.19-.48c.49-.49.94-1,1.42-1.52,1.6-1.69,3.27-3.33,4.87-5,1.81-1.92,3.65-3.82,5.48-5.73L127,239.9c1.87-2,3.75-3.9,5.62-5.86s3.57-3.73,5.36-5.6l5.54-5.77c1.76-1.84,3.51-3.68,5.28-5.52l5.74-6c1.71-1.78,3.37-3.6,5.12-5.34a1.18,1.18,0,0,0,.48-.85l.6,0c6,0,11.92,0,17.88,0,.54,0,.7.12.71.68,0,8.81,0,17.63.1,26.44a17.17,17.17,0,0,1-1.91,8.4,23.28,23.28,0,0,1-7.64,8.26,46.29,46.29,0,0,1-13.55,6.12,86.54,86.54,0,0,1-10.79,2.38c-2.41.37-4.84.64-7.27.88a175.14,175.14,0,0,1-20.87.65c-2.19,0-4.39-.12-6.57-.33,0-.12,0-.22-.2-.21s-.14.1-.16.19A3,3,0,0,1,109.6,258.3Zm35.22-33c-.29,0-.35.12-.15.34,0,.13-.08.27-.13.4a10.52,10.52,0,0,0-.25,7.17,10.53,10.53,0,0,0,10.8,7.16,10.48,10.48,0,0,0-.88-20.93,10.67,10.67,0,0,0-6.05,1.94c0-.07-.08-.15-.17-.11s-.08.19-.09.29L146.35,223c-.35,0-.35,0-.21.25l-1,1.43c-.42,0-.38.33-.35.61Z"/><path class="cls-1" d="M110.44,258.39c0-.09,0-.18.16-.19s.18.09.2.21Z"/><path class="cls-1" d="M145.16,224.68a1.21,1.21,0,0,1-.35.61C144.78,225,144.74,224.71,145.16,224.68Z"/><path class="cls-1" d="M144.82,225.29a.4.4,0,0,1-.15.34C144.47,225.41,144.53,225.3,144.82,225.29Z"/><path class="cls-1" d="M148.16,221.37l-.26.18c0-.1,0-.23.09-.29S148.12,221.3,148.16,221.37Z"/><path class="cls-1" d="M146.35,223l-.21.25C146,223,146,223,146.35,223Z"/></svg>