<svg id="Layer_1" data-name="Layer 1" xmlns="http://www.w3.org/2000/svg" viewBox="0 0 446.98 171.38"><defs><style>.cls-1{fill:#fff;}</style></defs><title>Ruby</title><path class="cls-1" d="M17.49,160.31c.21-1.37.37-2.67.6-4a188.74,188.74,0,0,1,16.7-49.9,183,183,0,0,1,16.73-28,170.45,170.45,0,0,1,21.33-24A151.44,151.44,0,0,1,95.07,37.19,108.36,108.36,0,0,1,121.8,24.61a71.84,71.84,0,0,1,13.3-2.72,104.21,104.21,0,0,1,11.44-.57,106.44,106.44,0,0,1,11.42.74c14.46,1.68,28.14,6,41.32,12.06a204.37,204.37,0,0,1,38.58,23.44,191.48,191.48,0,0,1,15.28,12.87l1.05,1-3.77,2.93c-.45-.33-.9-.63-1.34-1a173.66,173.66,0,0,0-25.46-15.61,116.3,116.3,0,0,0-25.84-9.38,92.71,92.71,0,0,0-11.71-1.89,78.46,78.46,0,0,0-12-.25,73.59,73.59,0,0,0-20.38,4,87.2,87.2,0,0,0-15.49,7,69.87,69.87,0,0,0-14.38,11.2,73.45,73.45,0,0,0-14.52,21.12,94.22,94.22,0,0,0-7.07,22.8,122.67,122.67,0,0,0-1.59,12.37,134.3,134.3,0,0,0-.25,17.14,123.94,123.94,0,0,0,2,17.6c0,.25,0,.5.08.78Z"/><path class="cls-1" d="M192.37,136.19l23.89,24.11c-.35,0-.53.06-.72.06q-14.52,0-29,0a1.58,1.58,0,0,1-1.25-.59q-8.19-8.5-16.4-17l-.68-.73-.15.05a.15.15,0,0,0-.05.06,1.09,1.09,0,0,0,0,.25q0,8.88,0,17.75s0,.05-.09.13H147.35V83.71c.25,0,.5-.06.74-.06q19.95,0,39.91,0a15.75,15.75,0,0,1,4.38.86,26.77,26.77,0,0,1,12,7.07,23.52,23.52,0,0,1,6.09,11.77,34.53,34.53,0,0,1,.61,9.52,32.84,32.84,0,0,1-1.5,8.28c-2.51,7.52-7.49,12.49-15.2,14.61l-.92.22ZM168,120.43c.27,0,.43,0,.6,0,5.12,0,10.23,0,15.35,0a2.48,2.48,0,0,0,1.2-.37,7.54,7.54,0,0,0,3-3.53,12.31,12.31,0,0,0,0-9.88,7.2,7.2,0,0,0-3-3.46,2.31,2.31,0,0,0-1.12-.32q-7.73,0-15.43,0a4.81,4.81,0,0,0-.65.08Z"/><path class="cls-1" d="M262,160.29V147H242.27v13.23c-.69.2-19.68.27-21,.08,0-.23,0-.48,0-.73q0-27.66,0-55.32c0-5.76,3.41-14.46,11.31-18.19a18.45,18.45,0,0,1,7.74-1.81c7.47-.06,14.94,0,22.41,0,6.65.6,12.33,3.09,16.32,8.68a17.31,17.31,0,0,1,3,8.33,31.92,31.92,0,0,1,.18,3.52q0,27.28,0,54.55v.93C281.61,160.4,263.9,160.48,262,160.29Zm-.16-35.12a6.3,6.3,0,0,0,.07-.71c0-5.85,0-11.71,0-17.56a4.12,4.12,0,0,0-2.24-3.72,5.75,5.75,0,0,0-2.88-.79c-3.13,0-6.26,0-9.38,0a6.18,6.18,0,0,0-3,.87,4,4,0,0,0-2.23,3.62v17.48c0,.25,0,.5.06.78Z"/><path class="cls-1" d="M416.69,140.84v-9.53h-1.05c-5.06,0-10.11.05-15.17,0a20.65,20.65,0,0,1-16.15-7.58,18.1,18.1,0,0,1-4.27-11.49c-.09-2.7-.07-5.4,0-8.1a19.23,19.23,0,0,1,8.48-16,20.47,20.47,0,0,1,12.26-3.93q15.81,0,31.63,0h.91c.18.7.25,17.85.09,19.52-2.27.1-4.55,0-6.83,0s-4.66,0-7,0H398.85a65.13,65.13,0,0,0,0,9.07h17.27a20.16,20.16,0,0,1,10.36,2.79A19.05,19.05,0,0,1,436.07,130a15,15,0,0,1,.15,1.63c0,3.19.15,6.39,0,9.57-.48,8.39-4.65,14.29-12.38,17.63a19.91,19.91,0,0,1-8.05,1.59q-16.71,0-33.44,0h-1.09c-.18-.66-.24-18-.07-19.44Z"/><path class="cls-1" d="M322.77,160.24v-76h21.64v56.46h29.24c.2.74.27,17.69.11,19.52C373.15,160.4,323.73,160.44,322.77,160.24Z"/><path class="cls-1" d="M292,84.23h21.64V160.3H292.05C291.89,159.69,291.85,85.24,292,84.23Z"/><path class="cls-1" d="M15.37,104l12.29,4.49c-1.8,4.32-3.58,8.56-5.38,12.87L10,116.88C11.66,112.5,13.49,108.29,15.37,104Z"/><path class="cls-1" d="M105.92,138.93l11.36,4.1c.87,4.68,1.71,9.24,2.56,13.87a5.1,5.1,0,0,1-.65-.17c-3.81-1.36-7.61-2.73-11.43-4.08a1,1,0,0,1-.76-.89,110.71,110.71,0,0,1-1.12-12.34A2.82,2.82,0,0,1,105.92,138.93Z"/><path class="cls-1" d="M52.62,53.72l7.53,6.58-7.29,8.47-8.18-7C47.25,59,49.88,56.35,52.62,53.72Z"/><path class="cls-1" d="M116.09,118.33l-8.62-6.82a96.67,96.67,0,0,1,3.17-11.71,5,5,0,0,1,.55.33c2.23,1.76,4.45,3.53,6.69,5.27a.94.94,0,0,1,.35,1.11c-.6,2.94-1.18,5.9-1.74,8.85-.13.71-.17,1.43-.26,2.14C116.2,117.72,116.16,117.94,116.09,118.33Z"/><path class="cls-1" d="M129.71,69.67l4.75,7.17c-2.12,2.54-4.21,5-6.33,7.58q-2.49-3.73-5-7.57A58.17,58.17,0,0,1,129.71,69.67Z"/><path class="cls-1" d="M100.88,28.31,92.64,33l-4.88-7.44C90.5,24,93.26,22.46,96.11,21Z"/><path class="cls-1" d="M184.77,16.89a62.26,62.26,0,0,1,10.39,3.74c-.15,2.4-.29,4.74-.43,7.11l-10.38-3.85C184.48,21.63,184.62,19.33,184.77,16.89Z"/><path class="cls-1" d="M152.31,64c-.81-2.4-1.6-4.79-2.42-7.25a73.27,73.27,0,0,1,9.41-3.44c.79,2.34,1.56,4.64,2.33,6.94Z"/><path class="cls-1" d="M194.74,58.56,184.2,57.28c0-2.08.24-4.26.35-6.56a69.57,69.57,0,0,1,10.6,1.39Z"/><path class="cls-1" d="M135.3,17.37l-2-6c.85-.43,7.94-.94,10.26-.73.68,2.08,1.37,4.19,2.09,6.36Z"/></svg>