<svg id="Layer_1" data-name="Layer 1" xmlns="http://www.w3.org/2000/svg" viewBox="0 0 241.82 285"><defs><style>.cls-1{fill:#fff;}</style></defs><title>windows</title><path class="cls-1" d="M241.35,32c0,.31,0,.61,0,.91V146.17l-130,1V51.05l3.23-.49,17.1-2.49L146.22,46l14.46-2.13,13.69-2,13.63-2,13.69-2,14.52-2.12,13.63-2,11-1.6a.65.65,0,0,0,.22-.11Z"/><path class="cls-1" d="M1.36,66.15l19.16-2.62q9.09-1.23,18.19-2.46l16.4-2.24,15.51-2.1C75.81,56,81,55.3,86.18,54.6l12.63-1.72a5.21,5.21,0,0,1,.6,0v94.53l-97.93.56v-.81q0-19.08-.05-38.16c0-.32,0-.64-.07-1Z"/><path class="cls-1" d="M241.35,159.21v113.6L111.29,254.46V159Z"/><path class="cls-1" d="M99.4,158.33V253l-6.23-.85-11-1.51-11-1.51-12.74-1.76-12.75-1.74-12.86-1.78-14.6-2L2.82,239.71c-1.34-.18-1.35-.16-1.35-1.51V157.69Z"/></svg>