<svg id="Layer_1" data-name="Layer 1" xmlns="http://www.w3.org/2000/svg" viewBox="0 0 241.82 285"><defs><style>.cls-1{fill:#fff;}</style></defs><title>Wordpress</title><path class="cls-1" d="M234.8,142.62c-.18,63.07-51.23,114-114.06,113.77C57.65,256.17,6.76,205.11,7,142.29c.26-63.1,51.36-114,114.14-113.68C184.24,28.93,235,79.84,234.8,142.62ZM120.88,35.31a107.19,107.19,0,0,0,0,214.38c59.17.13,107.41-48.12,107.25-107.26A107.15,107.15,0,0,0,120.88,35.31Z"/><path class="cls-1" d="M97.23,200.44,62.85,98.12c3.55-.34,6.95-.6,10.34-1,2.79-.33,4.27-2.11,4-4.54s-2.1-3.55-4.88-3.41q-12.46.64-24.92,1.21c-1.75.08-3.51,0-5.45,0,28.19-45.51,96.84-59.54,142.69-18.17-1.12.09-2.11.1-3.07.26A16.94,16.94,0,0,0,167.87,91c.66,5.78,3.38,10.67,6.19,15.58,2.54,4.44,5.21,8.85,7.29,13.5,4.44,9.91,4.69,20.29,1.87,30.61-3.23,11.85-7,23.56-10.5,35.32-1.17,3.87-2.43,7.71-3.65,11.56-.2.64-.43,1.27-.77,2.24C156.86,165.72,145.53,132,134.12,98.1l7.93-.7c.91-.08,1.81-.17,2.71-.31,2.47-.36,3.86-2,3.69-4.28S146.55,89,144,89.16c-3.53.19-7.05.42-10.58.69-12.88,1-25.74.36-38.59-.66-3.15-.25-5.08,1.31-5.06,4.1A3.55,3.55,0,0,0,93,97c3,.37,6,.68,9,.89a1.79,1.79,0,0,1,1.77,1.43q6.87,18.93,13.75,37.86a3.76,3.76,0,0,1,.13,2.29q-9.94,30-20,60.06C97.59,199.73,97.5,199.87,97.23,200.44Z"/><path class="cls-1" d="M94.15,233.59c9.47-27.53,18.86-54.8,28.24-82.07l.36-.07,29.45,80.68A95.23,95.23,0,0,1,94.15,233.59Z"/><path class="cls-1" d="M79.17,227.41c-23.38-11.68-39.64-29.64-48.07-54.27-7.94-23.2-6.66-46.17,3-69.18Z"/><path class="cls-1" d="M168.86,224.29c1.83-5.3,3.52-10.23,5.23-15.17,7.72-22.35,15.5-44.69,23.15-67.08,2.22-6.49,4.42-13,6-19.7a67.31,67.31,0,0,0,1.16-24.53C227.08,137.7,216.31,196.44,168.86,224.29Z"/></svg>